 <svg viewBox="0 0 172 50" xmlns="http://www.w3.org/2000/svg">
                  <g fill="#240b4f" transform="">
                    <path d="m0 0h7.16756757c4.50270273 0 5.78918923 0 7.62702703 2.20540541.9189189.91891891 1.3783784 2.66486486 1.3783784 4.04324324 0 1.74594594-.9189189 3.12432432-2.6648649 4.50270275 4.0432433 1.3783783 3.5837838 4.9621621 3.5837838 6.2486486 0 1.8378378-.4594595 3.5837838-2.2054054 4.9621622-2.2054054 1.7459459-3.1243243 2.2054054-7.16756758 2.2054054h-7.71891892zm6.24864865 9.00540541h1.74594594c.91891892 0 2.20540541 0 2.20540541-1.83783784 0-1.74594595-1.37837838-1.74594595-2.20540541-1.74594595h-1.74594594zm0 9.83243239h2.2054054c.91891892 0 3.12432435 0 2.66486485-2.2054054.4594595-2.2054054-1.37837836-2.2054054-2.66486485-2.2054054h-2.2054054z"></path>
                    <path d="m18.8378378 0h5.3297298v24.1675676h-5.3297298z"></path>
                    <path d="m35.3783784 5.32972973c6.7081081 0 9.8324324 4.96216217 9.8324324 9.83243247 0 4.0432432-3.1243243 9.3729729-9.8324324 9.3729729-6.2486487 0-9.372973-5.3297297-9.8324325-9.3729729.4594595-4.8702703 3.5837838-9.83243247 9.8324325-9.83243247zm0 14.42702707c2.6648648 0 4.5027027-2.2054054 4.5027027-4.5027027 0-3.1243244-1.8378379-4.9621622-4.5027027-4.9621622-2.2054054 0-4.0432433 1.7459459-4.0432433 4.9621622 0 2.2054054 1.8378379 4.5027027 4.0432433 4.5027027z"></path>
                    <path d="m56.4216216 5.32972973c6.7081081 0 9.8324325 4.96216217 9.8324325 9.83243247 0 4.0432432-3.1243244 9.3729729-9.8324325 9.3729729s-9.8324324-5.3297297-9.8324324-9.3729729c0-4.8702703 3.1243243-9.83243247 9.8324324-9.83243247zm0 14.42702707c2.2054054 0 4.5027027-2.2054054 4.5027027-4.5027027 0-3.1243244-2.2054054-4.9621622-4.5027027-4.9621622-2.2054054 0-4.5027027 1.7459459-4.5027027 4.9621622.0918919 2.2054054 2.2972973 4.5027027 4.5027027 4.5027027z"></path>
                    <path d="m67.6324324 5.78918919h4.9621622v2.2054054c.4594595-.91891891 1.7459459-2.66486486 4.9621622-2.66486486 1.8378378 0 4.0432432.45945946 5.4216216 3.12432432 1.3783784-1.74594594 3.1243243-3.12432432 5.7891892-3.12432432 1.3783783 0 3.5837838 0 4.9621621 1.74594595 1.745946 1.83783783 1.745946 3.12432432 1.745946 7.16756752v9.8324325h-5.4216216v-9.7405406c0-1.3783783 0-4.0432432-2.6648649-4.0432432-3.1243243 0-3.1243243 2.6648649-3.1243243 4.0432432v9.8324325h-5.3297298v-9.8324325c0-1.3783783 0-4.0432432-2.6648648-4.0432432-3.1243244 0-3.1243244 3.1243243-3.1243244 4.0432432v9.8324325h-5.4216216v-18.37837841z"></path>
                    <path d="m97.6810811 0h5.7891889v7.62702703c1.745946-2.20540541 4.502703-2.20540541 4.962162-2.20540541 4.043244 0 9.372973 2.66486487 8.913514 9.37297298.459459 6.7081081-4.502703 9.8324324-8.913514 9.8324324-2.664864 0-4.502702-1.3783784-5.421621-2.2054054v1.745946h-5.4216218v-24.1675676zm9.8324329 19.7567568c2.664864 0 4.502702-2.2054054 4.502702-4.5027027 0-2.6648649-1.745946-4.9621622-4.502702-4.9621622-2.664865 0-4.502703 2.2054054-4.502703 4.9621622 0 2.2054054 1.837838 4.5027027 4.502703 4.5027027z"></path>
                    <path d="m138.021622 18.3783784c-.918919 2.2054054-2.205406 3.5837838-4.043244 4.9621621-1.378378.918919-3.124324 1.3783784-4.962162 1.3783784-5.421621 0-9.832432-4.0432432-9.832432-9.372973 0-5.3297297 4.043243-9.83243239 9.372973-9.83243239 5.789189 0 9.832432 4.50270269 9.832432 9.83243239v1.3783784h-13.875675c.459459 2.2054054 2.205405 3.5837838 4.502702 3.5837838 1.745946 0 2.664865-.9189189 3.124325-1.8378378h5.881081zm-4.962163-5.4216216c0-.918919-1.378378-3.12432437-4.043243-3.12432437s-4.043243 2.20540537-4.502702 3.12432437z"></path>
                    <path d="m140.686486 5.78918919h4.962163v2.2054054c.918919-.91891891 3.124324-2.2054054 5.329729-1.74594594v4.96216215c-2.205405 0-4.962162 0-4.962162 3.1243243v9.8324325h-5.421621v-18.37837841z"></path>
                    <path d="m171.562162 21.9621622c0 2.6648648-.459459 6.2486486-1.378378 7.627027-1.378379 2.2054054-4.502703 4.5027027-9.005406 4.0432432-6.248648-.9189189-8.086486-3.5837838-8.545946-6.2486486h5.78919c.918919 1.3783784 2.664864 1.3783784 3.124324 1.8378378 2.664865-.4594594 4.502703-.4594594 4.043243-6.2486486v-.4594595c-.459459.9189189-1.837838 2.2054054-4.962162 2.2054054-4.962162 0-9.005405-3.5837838-9.005405-9.372973 0-6.2486486 4.502702-9.83243239 9.005405-9.83243239 2.205405 0 4.043243.45945946 4.962162 2.20540541v-1.83783784h5.789189v16.08108112zm-9.832432-2.2054054c2.664865 0 4.502702-1.8378379 4.043243-4.5027027.459459-3.1243244-1.837838-4.9621622-4.043243-4.9621622-2.205406 0-4.502703 1.7459459-4.502703 4.9621622 0 2.6648648 2.297297 4.5027027 4.502703 4.5027027z"></path>
                  </g>
                </svg>