<svg
                  className="max-w-[7.5rem]"
                  viewBox="0 0 128 34"
                  xmlns="http://www.w3.org/2000/svg"
                >
                  <path
                    d="m31.7375864 33.9047006c-2.2223657-.3269945-4.1784149-1.2892928-5.6661143-2.7841251-1.2397494-1.2519221-2.0478824-2.6252992-2.6356155-4.512525-.9275163-2.942951-.9275163-6.7267453 0-9.6042974.8999663-2.7934679 2.9111154-5.2225703 5.3906144-6.4838351 3.4253818-1.74708521 8.2374464-1.63497279 11.4056951.2615957 2.8560154 1.7097144 4.5824813 4.7460925 5.0600145 8.8849094.1469332 1.2706074.0550999 3.9426201-.1836666 5.045059-.945883 4.5218676-3.7008818 7.6703581-7.7415467 8.866224-.4958998.1401405-.9917996.2522529-1.4968827.3363372-.8173163.1121124-3.3335486.1121124-4.1324982-.0093427zm3.3335485-1.8124841c.6520164-.1961968 1.4509661-.9622983 1.8825826-1.7937988.8815996-1.7190571 1.2764828-4.260272 1.2856661-8.2963192.0091833-5.0544016-.7713997-8.2776338-2.4152156-9.9593201-.6887498-.7100453-1.1846495-.9249275-2.0662492-.9249275-1.9560491 0-3.2049819 2.0834225-3.6916984 6.1848686-.2295832 1.8872258-.2295832 6.3717227 0 8.0160382.6979331 5.1011151 2.4886823 7.5302176 5.0049145 6.7734588zm36.1088512 1.8124841c-.9091496-.093427-3.6916984-.5699048-4.6651313-.7941296l-.6703831-.158826.0551-3.6529964c.1285666-8.8008251.1377499-13.6029738.0642833-18.2743247-.08265-4.57792385-.1010166-5.06374435-.2754999-5.73641888-.2203999-.85952856-.5326331-1.45746148-.9183329-1.72839983-.1469333-.10276972-.5509998-.26159565-.890783-.33633726-1.1479161-.26159565-1.0836328-.21488214-1.1111828-.74741615-.0183667-.30830915.0183666-.50450589.0918333-.5699048.0826499-.09342702 9.4588293-1.91525387 9.7618791-1.90591117.08265 0 .1010166 1.22389393.0551 5.41876704-.02755 2.98032187-.0367333 5.41876705-.0091833 5.41876705s.3673331-.1494832.7622163-.3363373c1.1846495-.56056208 2.2774657-.79412963 3.8569984-.85018584 1.0560828-.03737081 1.5427993-.0093427 2.0846157.10276972 3.5355818.74741612 6.1528307 3.69036722 7.0711637 7.95998192.2387665 1.1117815.3305998 3.8772213.1652999 5.2599411-.1652999 1.2986356-.4683498 2.5785857-.918333 3.8024796-1.5152493 3.8959067-4.7569646 6.4371216-9.0639461 7.1004534-.9917995.1494832-4.1141315.1681686-5.4457143.0280281zm3.6825151-1.8591976c.670383-.1307979 1.1846495-.4017362 1.7448326-.9062421 1.395866-1.2799502 2.4427656-3.9052494 2.8560154-7.175195.1652999-1.3266636.1469333-4.353699-.0367333-5.4654805-.5050831-2.9990073-1.588716-4.9703174-3.1682486-5.764447-.6520164-.3269946-.753033-.3550227-1.533616-.3550227-.4867165-.0093427-.973433.0560562-1.4417828.186854l-.6060997.1868541-.0459166 3.4100861c-.0551 4.3723845.0826499 15.322031.2020332 15.6396828.0734666.1961968.1561166.2429103.5326331.2709384.863233.0653989 1.0101662.0653989 1.4968827-.0280281zm22.7195569 1.8124841c-4.5549314-.8315005-7.8150133-4.1201315-8.8802795-8.959651-.13775-.625961-.2020333-1.317321-.2295832-2.66267-.0551-2.130136.1193832-3.447457.6520163-5.0917725 1.0377163-3.1578332 2.8927488-5.3907389 5.5926476-6.7267453 2.8468321-1.41074796 6.7497467-1.50417498 9.2659797-.2242248 2.837648 1.4481187 4.509014 4.3350136 4.931448 8.5392294.0551.4951632.08265.9996691.073466 1.4948323l-.02755.4671351-6.795664.0280281-6.7956633.0280281.02755.812815c.0642833 1.8965685.4591665 3.5689121 1.2030162 5.0170309.3397831.6633318.6060997 1.0183545 1.2581161 1.691029 1.4693327 1.504175 2.929482 2.0927652 5.234498 2.0927652 1.671366 0 2.874382-.3363372 4.132498-1.1678377.348966-.2335675.707116-.4204216.789766-.4204216.19285 0 .63365.5792475.63365.8315005 0 .4110789-1.313216 1.7377425-2.598882 2.6252992-1.056083.719388-2.718266 1.3827199-4.169232 1.6349728-1.019349.1775113-3.296815.1775113-4.2977979-.0093427zm2.8835659-15.2286039 1.597899-.0560562-.0551-1.158495c-.202033-4.073418-1.18465-6.2969811-2.7733656-6.2969811-1.7264659 0-3.1039653 2.2609339-3.6825151 6.0260427-.0642833.4017362-.1101999.8128151-.1285666 1.2145512v.3737081l1.7264659-.0280281c.9366996-.0093427 2.4335823-.0467135 3.3151824-.0747416zm15.483093 15.3220309c-1.634633-.1775113-4.242698-.7567588-5.105931-1.1398096l-.422433-.186854-.0551-2.130136c-.02755-1.1771805-.064284-2.7467544-.08265-3.4848278l-.02755-1.3546918.257133-.1214551c.202033-.0840843.41325-.1307978.624466-.1401405l.376517-.0186854.321416.7941296c1.23975 3.101777 2.690716 4.7647779 4.582482 5.2786265.725483.1961968 2.075432.1961968 2.617249 0 1.496882-.5418767 2.323382-1.691029 2.332565-3.2699456.009184-1.8685403-1.000983-2.7654397-4.812064-4.2789574-2.360116-.9436129-3.186616-1.4200907-4.169232-2.4477879-1.056083-1.1024388-1.570349-2.3543608-1.662183-4.1014461-.119383-2.1114506.532634-3.8959066 1.974416-5.4094243 1.450966-1.5228604 3.333549-2.35436085 5.895698-2.5879284 2.259099-.20553943 5.721214.28028106 7.53033 1.0557253l.3306.1401405.0551 1.9059112c.036733 1.0463826.064283 2.4477879.073466 3.1204624l.018367 1.2145512-.4408.1681687c-.707116.2615956-.753033.2335675-1.138733-.8221578-1.092816-2.9522938-2.369299-4.353699-4.352898-4.7834633-1.212199-.2615957-2.222366.0186854-2.957032.8221577-.569366.6259611-.79895 1.1771805-.85405 2.1021079-.055099 1.0090118.119384 1.5508885.725484 2.2235631.743849.8315004 1.965232 1.5415458 4.398814 2.5785857 2.975399 1.2706074 4.398815 2.3450181 5.170215 3.914592.505083 1.0183545.642833 1.8311696.596916 3.4007435-.036733 1.1771804-.073466 1.4200906-.339783 2.2048776-.85405 2.5785857-2.791732 4.2696147-5.785498 5.0730871-1.010166.2709383-1.157099.280281-3.177432.3083091-1.184649 0-2.295832-.0093427-2.497865-.0280281zm-115.82933372-.5605621c-.07346663-.0280281-.11019995-.2615956-.11019995-.6913599 0-.7754443-.04591665-.7380735 1.42341605-1.0183545 1.12954952-.2148822 1.53361601-.4297643 2.0295158-1.0930961.96424959-1.2892929 1.17546616-3.7744515 1.17546616-13.9953673 0-9.59495475-.18366659-11.62232104-1.17546616-13.09846792-.44079981-.65398913-1.19383282-1.0183545-2.44276562-1.16783772l-.96424958-.13079783-.02754999-.76610155-.02754999-.76610154.30304987-.05605621c.16529993-.02802811 6.00589742-.04671351 12.97604443-.02802811l12.6729946.02802811.0550999.37370807c.0367334.20553944.08265 2.31699004.1193833 4.6806936l.0642833 4.30698552-.6611997.21488218c-.9826162.3083091-.9734329.3083091-1.423416-.88755671-1.0836329-2.92426566-2.3325657-4.60595198-4.040665-5.46548055-1.1754661-.58859021-1.7172826-.65398912-5.0416478-.65398912h-2.8927488l-.0459166.48582049c-.0918333.91558478-.2387666 6.83885769-.2387666 9.62298289v2.7841251l.8448663-.0093427c.4683498 0 1.3866828-.0373708 2.0478825-.0747416.9917995-.0560562 1.2856661-.1121124 1.6989159-.3083092 1.0193496-.4764778 1.7080993-1.5322031 2.1305324-3.2512602l.2203999-.8875567.753033-.0280281.7530331-.0280281v11.2299276l-.7530331-.0280281-.753033-.0280281-.2112165-.8875567c-.4040665-1.6630009-1.1662829-2.8588668-2.1213491-3.288631-.4407998-.1961968-1.5244327-.3083092-3.6274151-.3737081l-.9917996-.0280281v2.1021079c0 2.2983046.1285666 5.4094243.2846832 7.0911106.2203999 2.3543609.808133 3.6529964 1.8733992 4.1201315.2020332.0934271.8448663.2335676 1.423416.3269946.5785498.093427 1.1295496.1961967 1.2121995.2429102.2203999.1214552.2387666 1.3360064.0183667 1.4200907-.1561166.0747416-16.36469299.0747416-16.52999292.0093427zm45.27381392-.0186854c-.08265-.0560562-.1102-.2709383-.0918333-.719388l.02755-.6446464.3214165-.065399c.1744833-.0373708.5601831-.1121124.8448663-.1681686.890783-.1681686 1.3958661-.6633318 1.6897326-1.6256301.2387666-.784787.3397832-3.288631.3397832-8.3243473.0091833-6.1568405-.1193833-7.6049593-.7346664-8.4364597-.3305998-.4484497-.5693664-.5699048-1.3774994-.7287308-.3948831-.0747416-.8173163-.1588259-.9275162-.186854-.1836666-.0373708-.2020333-.1027697-.2020333-.5605621 0-.4484497.02755-.5231913.2020333-.5979329.2754999-.1121124 9.3761793-1.9619674 9.6608625-1.9619674h.2295832l-.0459166 1.3827199c-.02755.7567588-.0642833 1.8591976-.08265 2.4477878l-.0459166 1.0744107.3305998-.6072756c1.0560829-1.9339392 2.2407324-3.1391478 3.8110817-3.86787851.863233-.40173618 1.4417827-.5231913 2.5070489-.5231913 1.2672995 0 2.534599.42042158 2.534599.84084311 0 .2802811-2.2315491 6.2782957-2.3509324 6.3250092-.0642833.0280281-.4958998-.1494833-.9642496-.3737081-.9826162-.4764778-1.9101325-.719388-2.8009154-.7100453-1.1203662 0-2.3601157.4204215-2.8560155.9622982-.2112165.2335676-.2112165.2429103-.2663165 3.6716818-.0551 3.4007435.0551 7.5489031.2479499 9.211904.1561166 1.4200907.5326331 2.1207933 1.2948494 2.4477879.2571333.1121124 1.8733992.3363372 2.396849.3363372.0367333 0 .0642833.3269946.0459166.7287308l-.0275499.7287307-6.7956638.0186854c-3.7376151-.0093427-6.8507637-.0373708-6.915047-.0747416z"
                    fill="#240b4f"
                    transform=""
                  ></path>
                </svg>