<svg
                  className="max-w-[7.5rem]"
                  viewBox="0 0 154 34"
                  xmlns="http://www.w3.org/2000/svg"
                >
                  <g fill="#240b4f" transform="">
                    <path d="m79.4188679 33.7006289h-1.4968553l-.0855346-.1069182v-1.3899371c0-1.0050315.0855346-1.9672956.0855346-1.9672956h-.0427673s-.0855346.4918239-.2566038.9622641l-.5773585 1.58239c-.0213836.0855346-.1283019.1283019-.1924528.1283019h-1.0264151c-.0641509 0-.1710692-.0213837-.1924528-.1283019l-.5559749-1.6251573c-.1710692-.4704402-.2779874-.9194968-.2779874-.9194968h-.0213836s.0855345.9194968.0855345 1.9459119v1.4113208l-.1069182.1069182h-1.518239l-.0855346-.1069182v-6.5220126c0-.0855346.0213837-.1069182.0855346-.1069182h1.5823899l.1069183.0641509 1.2616352 3.2716981c.0855346.2352202.1283019.427673.1283019.427673h.0427673s.0427673-.1924528.1283019-.427673l1.2188679-3.2716981.1069182-.0641509h1.5610063c.064151 0 .1069183.0213836.1069183.1069182v6.5220126z"></path>
                    <path d="m87.2025157 29.2528302s-.0855346.6842767-.2352201 1.3257862l-.1710692.8339622c-.0213836.0427673.0213837.0855346.1069183.0855346h.6201257l.1069183-.0855346-.1710692-.8339622c-.1283019-.6201258-.2138365-1.3257862-.2138365-1.3257862zm2.8226415 4.4477987h-1.6893081l-.0855346-.0855346-.2779875-.7911949-.1496855-.0855346h-1.2830189c-.0855345 0-.1069182.0213836-.1283018.0855346l-.2779875.7911949-.1069182.0855346h-1.6465409c-.0855346 0-.1283019-.0427673-.1069182-.1496855l2.2238993-6.5433962.1069183-.064151h1.1761006l.0855346.064151 2.2238994 6.5433962c.0427673.1069182.0427673.1496855-.064151.1496855"></path>
                    <path d="m97.7660377 33.8503145h-.7484276c-1.4968554 0-2.309434-.7698114-2.309434-2.0100629v-3.0150944c0-1.2188679.8767296-2.0100629 2.309434-2.0100629h.8339622c1.0691824 0 1.7106919.427673 2.2452827 1.4327044.021384.064151.064151.1496856-.021383.1924529l-1.3257865.6201258-.1924528-.0855346c-.2138365-.3849057-.4490566-.5987422-.7698113-.5987422h-.7484277c-.363522 0-.5773585.1710692-.5773585.4490566v3.0150944c0 .2566037.2566038.4276729.5773585.4276729h.7484277c.3207547 0 .5132075-.1496855.5132075-.4276729v-.4490566l-.1283019-.1069183h-.7911949l-.1069183-.1283019v-1.1333333c0-.0855346.0427673-.1069182.1069183-.1069182h2.608805c.0855349 0 .0855349.0213836.0855349.1069182v1.7962264c0 1.2616352-.8339626 2.0314466-2.3094343 2.0314466"></path>
                    <path d="m107.559748 29.2528302s-.085534.6842767-.23522 1.3257862l-.192453.8339622c-.021383.0427673.021384.0855346.106919.0855346h.620125l.106919-.0855346-.171069-.8339622c-.128302-.6201258-.213837-1.3257862-.213837-1.3257862zm2.801258 4.4477987h-1.689308l-.085534-.0855346-.277988-.7911949-.149685-.0855346h-1.283019c-.085535 0-.128302.0213836-.128302.0855346l-.277988.7911949-.106918.0855346h-1.646541c-.085534 0-.128302-.0427673-.106918-.1496855l2.223899-6.5433962.106919-.064151h1.1761l.085535.064151 2.223899 6.5433962c.064151.1069182.064151.1496855-.064151.1496855"></path>
                    <path d="m119.555975 33.7006289h-4.811321c-.085535 0-.128302-.0641509-.085535-.1496855l2.480504-4.8754717c.042767-.0855346.021383-.1496855-.106919-.1496855h-1.860377l-.128302-.0855346v-1.3685535c0-.0855346.042767-.1069182.106918-.1069182h4.597485c.128302 0 .128302.0641509.106918.1496855l-2.480503 4.8540881c-.042768.0855346-.021384.1496855.106918.1496855h2.074214l.106918.1069182v1.3685535z"></path>
                    <path d="m126.50566 33.7006289h-1.58239l-.085534-.1069182v-6.5220126c0-.0855346.042767-.1069182.085534-.1069182h1.58239c.042768 0 .106919.0213836.106919.1069182v6.5220126z"></path>
                    <path d="m137.154717 33.7006289h-1.34717l-.106918-.0855346-1.58239-2.9509434c-.128302-.2566037-.213836-.4918239-.213836-.4918239h-.042768s.064151.855346.064151 1.7320755v1.7106918l-.128302.1069183h-1.539622l-.085535-.1069183v-6.5220125c0-.0855346.042767-.1069183.085535-.1069183h1.347169l.149686.0855346 1.58239 3.0150944c.149685.2779874.23522.5132075.23522.5132075h.042767s-.042767-.8339623-.042767-1.7748428v-1.7320754c0-.0855346.021384-.1069183.085535-.1069183h1.518239c.042767 0 .106918.0213837.106918.1069183v6.5220125z"></path>
                    <path d="m147.31195 33.7006289h-4.447799l-.085535-.1069182v-6.5220126c0-.0855346.042768-.1069182.085535-.1069182h4.447799c.042767 0 .106918.0213836.106918.1069182v1.3685535l-.106918.0855346h-2.630189c-.106918 0-.128302.0427673-.128302.1069182v.7484277c0 .0641509.021384.1283019.128302.1283019h2.159748l.128302.0855346v1.3899371l-.128302.0855346h-2.159748c-.106918 0-.128302.0427672-.128302.1069182v.8125786c0 .0855346.021384.1069182.128302.1069182h2.630189l.106918.1069183v1.3685534z"></path>
                    <path d="m149.150943 22.6238994v-.5345912h.342139c.171069 0 .363522.0427673.363522.2566037 0 .2566038-.192453.2779875-.40629.2779875zm0 .2138364h.299371l.449057.7484277h.277987l-.491823-.7484277c.256603-.0213836.449056-.1710691.449056-.4704402 0-.3421384-.192453-.4918239-.598742-.4918239h-.641509v1.7106918h.256603zm.299371 1.3685535c.812579 0 1.496856-.6201258 1.496856-1.4754717s-.684277-1.4754717-1.496856-1.4754717c-.812578 0-1.496855.6201258-1.496855 1.4754717s.684277 1.4754717 1.496855 1.4754717zm-1.197484-1.4754717c0-.7056604.534591-1.2188679 1.197484-1.2188679.662894 0 1.197485.5345912 1.197485 1.2188679 0 .7056604-.534591 1.2402516-1.197485 1.2402516-.662893-.0213837-1.197484-.5345912-1.197484-1.2402516z"></path>
                    <path d="m60.4943396 23.2012579c-.9194968.0855346-1.9245283-.0213837-2.4805031-.2352202-2.2666667-.8767295-3.0578617-2.8440251-3.2289308-7.5911949 0-.0855346.0213836-.2993711.1710691-.427673.1924529-.1924528.4704403-.2138365.4704403-.2138365h7.0352201c.363522 0 .6415095-.299371.6415095-.6415094v-.5773585c-.0855346-3.63522012-2.1383648-6.6716981-5.8377359-6.62893081-3.9987421.0427673-6.5861635 3.18616351-6.5861635 9.02389941 0 5.645283 2.8440251 8.61761 7.2704402 8.61761 1.4754717 0 2.8012579-.299371 3.7421384-.6415094.3421384-.1069182 1.0477987-.5559749 1.0477987-.5559749v-.8125786c.0213837-.0213836-.8339622.5132076-2.245283.6842768zm-5.0465409-9.836478c-.363522 0-.6415094-.2993711-.6415094-.6415095v.0427673c0-3.44276726 1.1333333-4.64025154 2.4591195-4.64025154 1.2188679 0 2.245283 1.41132076 2.245283 4.42641514v.1924528c0 .363522-.299371.6415094-.6415094.6415094h-3.4213837z"></path>
                    <path d="m97.9371069 23.2012579c-.9194968.0855346-1.9245283-.0213837-2.4805031-.2352202-2.2666667-.8767295-3.0578617-2.8440251-3.2289308-7.5911949 0-.0855346.0213836-.2993711.1710691-.427673.1924529-.1924528.4704403-.2138365.4704403-.2138365h7.0352201c.3635225 0 .6415095-.299371.6415095-.6415094v-.5773585c-.085535-3.63522012-2.1383648-6.6716981-5.8377359-6.62893081-3.9987421.0427673-6.5861635 3.18616351-6.5861635 9.02389941 0 5.645283 2.8440251 8.61761 7.2704402 8.61761 1.4754717 0 2.8012579-.299371 3.7421384-.6415094.3421384-.1069182 1.0477988-.5559749 1.0477988-.5559749v-.8125786c0-.0213836-.8339623.5132076-2.2452831.6842768zm-5.0679245-9.836478c-.363522 0-.6415094-.2993711-.6415094-.6415095v.0427673c0-3.44276726 1.1333333-4.64025154 2.4591195-4.64025154 1.2188679 0 2.245283 1.41132076 2.245283 4.42641514v.1924528c0 .363522-.2993711.6415094-.6415095.6415094h-3.4213836z"></path>
                    <path d="m125.650314 23.2012579c-.919496.0855346-1.924528-.0213837-2.480503-.2352202-2.266666-.8767295-3.057861-2.8440251-3.22893-7.5911949 0-.0855346.021383-.2993711.171069-.427673.192453-.1924528.47044-.2138365.47044-.2138365h7.03522c.363522 0 .641509-.299371.641509-.6415094v-.5773585c-.085534-3.63522012-2.138364-6.6716981-5.837735-6.62893081-3.998742.0427673-6.586164 3.18616351-6.586164 9.02389941 0 5.645283 2.844025 8.61761 7.27044 8.61761 1.475472 0 2.801258-.299371 3.742139-.6415094.342138-.1069182 1.047798-.5559749 1.047798-.5559749v-.8125786c0-.0213836-.855345.5132076-2.245283.6842768zm-5.067924-9.836478c-.363522 0-.641509-.2993711-.641509-.6415095v.0427673c0-3.44276726 1.133333-4.64025154 2.459119-4.64025154 1.218868 0 2.245283 1.41132076 2.245283 4.42641514v.1924528c0 .363522-.299371.6415094-.641509.6415094h-3.421384z"></path>
                    <path d="m64.236478 9.57987421c0-.83396226.0213836-1.24025157-.4062893-1.09056603l-.064151-.14968554 3.5496856-1.73207547c.3849056-.17106918.6628931.10691824.6415094.64150943v1.43270441l.0855346.19245283.2138365-.23522013c.2352201-.27798742.4490566-.51320755.727044-.72704402.7484277-.59874214 1.6251572-1.04779875 2.7371069-1.04779875 3.1647799 0 5.6238994 2.73710692 5.6238994 8.76729556 0 6.2226416-2.608805 8.8742139-6.6503145 8.8742139-.4276729 0-.8125786-.0213837-1.1761006-.0855346-.5987421-.0855346-1.1333333-.3207547-1.3044025-.3421384l-.1069183.1069183v4.9610062c0 .3635221.0213837.8339623.4704403 1.0691824v.1710692h-4.8540881v-.1710692c.4490566-.2138364.4704403-.7056603.4704403-1.0691824m9.1735849-13.3220125c0-4.918239-1.0050314-6.67169814-3.1220126-6.67169814-.5987421 0-1.3471698.34213836-1.8389937.72704402-.1069182.08553459-.2993711.29937112-.2993711.87672952v10.7987422c0 .7484277.0855346.9622641.3849057 1.0477987.4490566.1283019 1.0050314.2138365 1.6679245.2138365 2.0100629 0 3.2075472-1.6679245 3.2075472-6.9924528"></path>
                    <path d="m20.763522 11.4830189v11.4402515c0 .3635221.0213837.8339623.4704403 1.0691824v.1710692h-4.8754717v-.1710692c.4490566-.2138364.4704402-.7056603.4704402-1.0691824v-13.55723266c0-.51320755-.0855346-.76981132-.4062893-.64150944l-.0641509-.14968553 3.5496855-1.71069183c.3849057-.17106918.6628931.10691824.6628931.66289309v1.66792452.25660378l.0855346.17106918c.0641509 0 .0855346-.10691824.3421383-.38490566 1.518239-1.77484277 3.0150944-2.33081761 4.4264151-2.33081761 2.4163522 0 4.1270441 1.94591195 4.1270441 5.30314466v10.7345912c0 .363522.0213836.8339623.4704402 1.0691824v.1710692h-4.8754717v-.1710692c.4490566-.2138365.4704403-.7056604.4704403-1.0691824v-10.5207547c0-1.881761-.6842768-2.73710695-2.1597485-2.73710695-.6842767 0-1.6037735.38490565-2.2666666.89811325-.1710692.1283018-.1924529.1496855-.2352202.1924528-.1069182.1069182-.1924528.2993711-.1924528.7056604"></path>
                    <path d="m105.720755 11.4830189.021383 11.4402515c0 .3635221.021384.8339623.470441 1.0691824v.1710692h-4.875472v-.1710692c.449057-.2138364.47044-.7056603.47044-1.0691824v-13.55723266c0-.51320755-.085534-.76981132-.406289-.64150944l-.064151-.14968553 3.549685-1.71069183c.384906-.17106918.662894.10691824.662894.66289309v1.66792452.25660378l.085534.17106918c.064151 0 .085535-.10691824.342138-.38490566 1.518239-1.77484277 3.015095-2.33081761 4.426416-2.33081761 2.416352 0 4.127044 1.94591195 4.127044 5.30314466v10.7345912c0 .363522.021383.8339623.47044 1.0691824v.1710692h-4.875472v-.1710692c.449057-.2138365.47044-.7056604.47044-1.0691824v-10.5207547c0-1.881761-.684276-2.73710695-2.159748-2.73710695-.684277 0-1.603774.38490565-2.266667.89811325-.171069.1283018-.192453.1496855-.23522.1924528-.128302.1069182-.213836.2993711-.213836.7056604"></path>
                    <path d="m30.5786164 8.14716981h.8767295c.363522 0 .6415094.29937107.6415094.64150944v11.50440255c0 2.2880503 1.0691824 4.2553459 3.827673 4.2553459 1.1119497 0 1.945912-.2352202 2.6301887-.5559749.6842767-.2779874 1.3471698-.9194968 1.3471698-.9194968v-.8125786s-.8339623.5773584-2.2238994.662893c-1.2830188 0-1.6465409-1.1333333-1.6465409-2.7157232v-11.41886795c0-.36352202.2993711-.64150944.6415095-.64150944h1.6037736c1.2188679 0 1.2188679 0 1.2188679-.47044025v-.57735849c0-.29937107 0-.25660377-.6415094-.25660377h-2.1811321c-.363522 0-.6415095-.29937107-.6415095-.64150944v-3.57106918-.12830189c0-.51320754 0-.4918239-.5345912-.4918239-.3207547 0-.6415094.0427673-1.1119496.64150944-1.518239 1.98867924-3.1220126 3.4-4.3194969 3.95597484-.6201258.29937107-.5773585.19245283-.5773585.87672956 0 .66289308 0 .68427673.727044.68427673.1069183-.02138365.1924529-.02138365.3635221-.02138365"></path>
                    <path d="m44.8201258 9.66540881v.17106918.25660381c0 .1710691.0427673.1710691.1283019.1710691s.1283019-.0855345.299371-.40628926c.6842768-1.53962265 2.2880504-3.33584906 4.1698114-3.35723271 1.2402515-.02138365 2.1169811.85534591 2.1169811 2.09559749 0 .85534591-.6415094 1.94591198-1.5610063 1.96729558-1.7320755.064151-1.8603774-1.13333332-2.6943396-1.13333332-.8553459 0-1.6679245 2.22389942-1.9245283 3.10062892-.3421384 1.2616352-.5345912 2.8226415-.5345912 4.2339623v.4704402 5.8805032c0 .363522.0213836.8339622.4704402 1.0477987v.1710692h-4.7044025v-.1710692c.4490566-.2138365.4704403-.7056604.4704403-1.0477987v-13.74968556c0-.51320755-.0855346-.76981132-.4062893-.64150944l-.064151-.14968553 3.5496856-1.71069183c.3849056-.17106918.662893.10691824.662893.66289309"></path>
                    <path d="m82.3056604 9.66540881v.17106918.25660381c0 .1710691.0427673.1710691.1283019.1710691s.1283019-.0855345.299371-.40628926c.6842768-1.53962265 2.2880503-3.33584906 4.1698114-3.35723271 1.2402515-.02138365 2.1169811.85534591 2.1169811 2.09559749 0 .85534591-.6415094 1.94591198-1.5610063 1.96729558-1.7320755.064151-1.8603774-1.13333332-2.6943396-1.13333332-.8553459 0-1.6679246 2.22389942-1.9245283 3.10062892-.3421384 1.2616352-.5345912 2.8226415-.5345912 4.2339623v.4704402 5.709434c0 .363522.0213836.8339623.4704402 1.0477987v.1710692h-4.6830188v-.1710692c.4490566-.2138364.4704402-.7056603.4704402-1.0477987v-13.60000001c0-.51320755-.0855346-.76981132-.4062893-.64150944l-.0641509-.14968553 3.5496855-1.71069182c.3849057-.17106919.6628931.10691823.6415094.66289308"></path>
                    <path d="m147.162264 9.66540881v.17106918.25660381c0 .1710691.042767.1710691.128302.1710691s.128302-.0855345.299371-.40628926c.684277-1.53962265 2.266667-3.33584906 4.169811-3.35723271 1.240252-.02138365 2.116982.85534591 2.116982 2.09559749 0 .85534591-.64151 1.94591198-1.561007 1.96729558-1.732075.064151-1.860377-1.13333332-2.694339-1.13333332-.87673 0-1.667925 2.22389942-1.924529 3.10062892-.342138 1.2616352-.534591 2.8226415-.534591 4.2339623v.4704402 5.709434c0 .363522.021384.8339623.47044 1.0477987v.1710692h-4.704402v-.1710692c.449056-.2138364.47044-.7056603.47044-1.0477987v-13.60000001c0-.51320755-.085534-.76981132-.406289-.64150944l-.064151-.14968553 3.549685-1.71069182c.384906-.17106919.662894.10691823.662894.66289308"></path>
                    <path d="m133.113208 20.036478c0 1.5610063.70566 2.3949685 2.159748 2.3949685.684277 0 1.58239-.3849056 2.245283-.8981132.171069-.1283019.192453-.1496855.23522-.1710691.171069-.1283019.23522-.3207548.23522-.7270441l-.021383-11.35471696c0-.4490566-.085535-.68427672-.40629-.55597484l-.064151-.14968553 3.549686-1.71069183c.384906-.17106918.662893.10691824.641509.66289309v14.41257857c.021384.5987422-.042767 1.2402516.427673 1.0691824l.064151.1496856-3.528302 1.3899371c-.363522 0-.641509-.2993711-.641509-.6628931v-.6842767c0-.2138365 0-.2138365 0-.2566038l-.085535-.1710692c-.064151 0-.064151.1283019-.342138.3849057-1.325786 1.2830188-2.608805 1.518239-4.020126 1.518239-2.75849 0-4.148428-2.0100629-4.148428-5.0679246v-10.28553456c0-.4490566-.085534-.68427673-.406289-.55597484l-.064151-.14968554 3.549686-1.71069182c.384905-.17106918.662893.10691824.641509.66289308"></path>
                    <path d="m11.5044025 9.72955975h-.1710692c-.2138364.44905665-.7056603.49182385-1.0691824.49182385h-4.66163518c-.36352201 0-.66289308-.27798737-.66289308-.64150939v-6.13710691c0-.36352202.29937107-.64150944.64150944-.64150944l5.94465412-.02138365c1.9245283 0 2.181132.74842768 2.5018868 2.0100629h.1710691l.5773585-4.78993711h-.1710692c-.2138364.4490566-.7056603.47044025-1.0691823.47044025l-13.5358491.02138365v.14968553c.4490566.21383648.47044025.70566038.47044025 1.06918239v21.16981128c0 .3421384-.06415094.8981133-.4490566 1.1119497v.1710692h14.09182385c.6628931 0 1.0905661 0 1.0691824.4704403l.1710692.0213836.5559749-4.8113207-.1710692-.0213837c-.5345912 1.3044025-1.7106918 2.0100629-3.6352201 2.0314466h-6.52201262c-.36352202 0-.64150944-.2993711-.64150944-.6415095v-8.0402516c0-.363522.29937107-.662893.66289308-.662893h4.29811321c.66289307 0 1.06918237 0 1.06918237.4704402l.1496856.0213837"></path>
                  </g>
                </svg>